<svg xmlns="http://www.w3.org/2000/svg" xmlns:xlink="http://www.w3.org/1999/xlink" width="43.334" height="36.69" viewBox="0 0 43.334 36.69"><defs><style>.a{fill:url(#a);}</style><linearGradient id="a" x1="0.5" x2="0.5" y2="1" gradientUnits="objectBoundingBox"><stop offset="0" stop-color="#ffd428"/><stop offset="1" stop-color="#ff8900"/></linearGradient></defs><g transform="translate(0 -35.103)"><g transform="translate(0 35.103)"><g transform="translate(26.432 26.556)"><path class="a" d="M290.024,322.82a1.656,1.656,0,0,0,1.111-2.062l-.847-2.829a1.656,1.656,0,0,0-2.062-1.111l-2.8.837-.535.535,3.633.465-4.462.573-2.68-3.092a1.183,1.183,0,0,0-1.788,1.55l3.1,3.571a1.2,1.2,0,0,0,1.044.4h0l4.927-.633-4.529,1.7a2.187,2.187,0,0,1-1.639-.19,3.321,3.321,0,0,1-1.011-.93l-1.874,1.874v0a2.982,2.982,0,0,0,3.443,1.4C285.6,324.122,289.45,322.992,290.024,322.82Z" transform="translate(-279.309 -315.73)"/></g><path class="a" d="M25.308,131.98a2.313,2.313,0,0,1,1.156-2.238l-1.914-1.914,5.847-5.847,2.647,4.14-.035.035-3.861,3.861a23.824,23.824,0,0,1,1.591,1.8l4.768-4.768a1.053,1.053,0,0,0,.142-1.31l-4.839-7.568-3.321-3.389a2.339,2.339,0,0,0-3.645-2.881l-.891.891h0a5.579,5.579,0,1,1-7.89,7.89h0l-6.193,6.193a5.579,5.579,0,0,1-7.89,7.89l-.3.3a2.338,2.338,0,0,0,2.661,3.764l.8.8a3.691,3.691,0,0,0,5.219,0l2.345-2.345L21.7,140.1a1.028,1.028,0,0,0,1.029-.269l4.723-4.723C25.82,133.224,25.4,132.931,25.308,131.98Zm-3.717,5.6L16.3,136.081l6.556-6.556,2.011,2.011-1.7.322L19.6,135.425l5.024-.885Z" transform="translate(0 -104.016)"/><circle class="a" cx="3.569" cy="3.569" r="3.569" transform="translate(15.442 9.155)"/><circle class="a" cx="3.569" cy="3.569" r="3.569" transform="translate(1.359 23.239)"/><circle class="a" cx="2.452" cy="2.452" r="2.452" transform="translate(38.43 26.792)"/><path class="a" d="M3.672,43.3a2.468,2.468,0,0,0,1.2-.311A2.554,2.554,0,0,0,7.31,44.932h0a1.619,1.619,0,1,0,2.347-1.444,2.543,2.543,0,0,0,.252-1.094,1.891,1.891,0,0,0-.966-3.508A2.808,2.808,0,1,0,3.5,37.91a2.833,2.833,0,0,0,.033.429A2.48,2.48,0,0,0,3.672,43.3Z" transform="translate(-1.079 -35.103)"/><circle class="a" cx="1.041" cy="1.041" r="1.041" transform="translate(8.701 12.275)"/></g></g></svg>