<svg xmlns="http://www.w3.org/2000/svg" xmlns:xlink="http://www.w3.org/1999/xlink" width="41" height="41.009" viewBox="0 0 41 41.009"><defs><style>.a{fill:url(#a);}</style><linearGradient id="a" x1="0.5" y1="0.658" x2="0.5" y2="1" gradientUnits="objectBoundingBox"><stop offset="0" stop-color="#ffd428"/><stop offset="1" stop-color="#ff8900"/></linearGradient></defs><g transform="translate(-46 -444)"><path class="a" d="M41.633,5.97A2.047,2.047,0,1,0,38.9,4.046a2.026,2.026,0,0,0,.288,1.03A103.951,103.951,0,0,1,22.5,6.1,103.746,103.746,0,0,1,5.813,5.071,2.025,2.025,0,0,0,6.1,4.046,2.05,2.05,0,1,0,3.367,5.97V33.429H2V43H43V33.429H41.633ZM22.5,7.463c10.571,0,15.845-.806,17.767-1.193v6.8C38.741,13.4,33.534,14.3,22.5,14.3c-11,0-16.233-.9-17.767-1.225V6.27C6.655,6.656,11.929,7.463,22.5,7.463Zm15.717,16.4H31.383a.683.683,0,0,0-.683.683v8.883H24.892l-1.845-2.46A.683.683,0,0,0,22.5,30.7h-.683V24.509l.92-.394a2.043,2.043,0,1,0-.175-1.413l-4.431,1.9.538,1.256,1.781-.763v5.6h-.683a.683.683,0,0,0-.483.2L16.75,33.429H14.3V24.546a.683.683,0,0,0-.683-.683H6.783a.683.683,0,0,0-.683.683v8.883H4.733V14.47c1.919.387,7.193,1.193,17.767,1.193s15.847-.806,17.767-1.193v18.96H38.9V24.546A.683.683,0,0,0,38.217,23.863Zm-.683,1.367v8.2H32.067v-8.2Zm-14.35,8.2h-4.5l1.367-1.367h2.109Zm.683-10.25a.683.683,0,1,1,.683.683A.683.683,0,0,1,23.867,23.179Zm-10.933,2.05v8.2H7.467v-8.2ZM4.05,3.363a.683.683,0,1,1-.683.683A.683.683,0,0,1,4.05,3.363ZM41.633,41.63H38.217V40.263H36.85V41.63H35.483V38.9H34.117V41.63h-6.15V38.9H26.6V41.63H16.35V40.263H14.983V41.63H13.617V38.9H12.25V41.63H6.1V38.9H4.733V41.63H3.367v-4.1H8.833v2.05H10.2v-2.05h8.2v2.05h1.367v-2.05h2.05V38.9h1.367V37.529H30.7v2.05h1.367v-2.05h9.567Zm0-5.467H3.367V34.8H41.633ZM40.95,4.729a.683.683,0,1,1,.683-.683A.683.683,0,0,1,40.95,4.729Z" transform="translate(44.001 442.013)"/><path class="a" d="M27.866,13.221c3.348,0,6.2-.161,8.5-.29l.423-.024-.077-1.367-.424.024c-2.278.131-5.113.29-8.421.29s-6.143-.16-8.421-.288l-.424-.024-.077,1.367.423.024C21.663,13.06,24.517,13.221,27.866,13.221Z" transform="translate(40.635 438.988)"/><path class="a" d="M26.272,17.05c4.893,0,8.689-.349,11.46-.6l.9-.079L38.51,15l-.9.083c-2.746.255-6.505.6-11.336.6s-8.59-.346-11.336-.6l-.9-.085-.123,1.367.9.082C17.582,16.7,21.378,17.05,26.272,17.05Z" transform="translate(42.229 437.892)"/><path class="a" d="M12.733,38a2.733,2.733,0,1,0,2.733,2.733A2.733,2.733,0,0,0,12.733,38Zm0,4.1A1.367,1.367,0,1,1,14.1,40.733,1.367,1.367,0,0,1,12.733,42.1Z" transform="translate(43.467 430.609)"/><path class="a" d="M48.733,38a2.733,2.733,0,1,0,2.733,2.733A2.733,2.733,0,0,0,48.733,38Zm0,4.1A1.367,1.367,0,1,1,50.1,40.733,1.367,1.367,0,0,1,48.733,42.1Z" transform="translate(32.067 430.609)"/></g></svg>