<svg xmlns="http://www.w3.org/2000/svg" xmlns:xlink="http://www.w3.org/1999/xlink" width="41" height="41" viewBox="0 0 41 41"><defs><style>.a{fill:url(#a);}</style><linearGradient id="a" x1="0.5" y1="0.671" x2="0.5" y2="1" gradientUnits="objectBoundingBox"><stop offset="0" stop-color="#ffd428"/><stop offset="1" stop-color="#ff8900"/></linearGradient></defs><g transform="translate(0 0)"><g transform="translate(0 0)"><path class="a" d="M34.167,20.5a.683.683,0,0,0,.683-.683V10.25h5.467A.683.683,0,0,0,41,9.566V6.833a.643.643,0,0,0-.015-.075.666.666,0,0,0-.029-.146.7.7,0,0,0-.427-.422.58.58,0,0,0-.056-.025L14.506.016A.682.682,0,0,0,14.35,0H11.617a.678.678,0,0,0-.236.048c-.018.007-.036.013-.053.021s-.031.01-.046.018L.348,6.237a.66.66,0,0,0-.094.077.669.669,0,0,0-.064.052.684.684,0,0,0-.137.2v.008A.68.68,0,0,0,0,6.81c0,.008,0,.015,0,.023V9.567a.683.683,0,0,0,.683.683H10.25v12.7L7.717,25.483a.683.683,0,0,0-.2.483V36.9H6.15V41H19.817V36.9H18.45V25.966a.683.683,0,0,0-.2-.483L15.717,22.95V10.25H29.383v9.567a.683.683,0,0,0,.683.683h1.367v2.05a.683.683,0,0,0,.683.683A1.367,1.367,0,1,1,30.75,24.6v-.683H29.383V24.6a2.725,2.725,0,0,0,1.43,2.388l-5.129,5.129H23.917a.683.683,0,0,0-.683.683v6.15a.683.683,0,0,0,.683.683h16.4A.683.683,0,0,0,41,38.95V32.8a.683.683,0,0,0-.683-.683H38.55L33.42,26.987a2.722,2.722,0,0,0-.62-5.035V20.5ZM34.85,7.516h4.783V8.883H34.85Zm4.783,25.967v4.783H24.6V33.483Zm-3.016-1.367h-9l4.5-4.5ZM33.483,16.4H30.75V10.25h2.733Zm0-7.517H30.75V7.516h2.733ZM12.3,1.366h1.367V6.15H12.3Zm-.683,6.15H14.35V8.6l-.283.283h-2.45Zm2.733,3.016v4.9l-2.45-2.45Zm-2.733-.283H12.7l-1.084,1.084Zm0,4.383,2.45,2.45-2.45,2.45Zm2.733,4.1v4.9l-2.45-2.45Zm-2.733,4.5v-.4l2.45,2.45-2.45,2.45Zm2.733,3.7v4.9L11.9,29.383Zm-2.733,4.1,2.45,2.45-2.45,2.45Zm2.733,4.1V36.9H12.583ZM10.933,1.851v4.3H3.292ZM1.367,8.883V7.516H10.25V8.883ZM8.883,26.249l1.367-1.367V36.9H8.883ZM18.45,38.266v1.367H7.517V38.266ZM17.083,26.249V36.9H15.717V24.883Zm12.3-17.366H15.717V7.516H29.383ZM15.033,6.15v-4.6l19.433,4.6H15.033ZM30.75,19.133V17.766h2.733v1.367Z" transform="translate(0 0)"/></g></g></svg>