<svg xmlns="http://www.w3.org/2000/svg" xmlns:xlink="http://www.w3.org/1999/xlink" width="40.996" height="40.981" viewBox="0 0 40.996 40.981"><defs><style>.a{fill:url(#a);}</style><linearGradient id="a" x1="0.5" x2="0.5" y2="0.863" gradientUnits="objectBoundingBox"><stop offset="0" stop-color="#ff8900"/><stop offset="1" stop-color="#ffd428"/></linearGradient></defs><g transform="translate(0 -0.02)"><path class="a" d="M48.74,8.888a2.064,2.064,0,0,0-2.059,1.845l-.478,4.3H44.3a4.1,4.1,0,1,0-6.095,0h-1.89c-.532-4.783-.451-4.6-.752-5.118l4.856-6.07A.683.683,0,0,0,39.351,3l-.168.21-3.4-2.8a1.4,1.4,0,0,0-1.93,0L31.4,2.86a1.376,1.376,0,0,0,.04,1.966l3.834,3.266-.752.937A2.08,2.08,0,0,0,31.7,10.972l.459,6.982A2.748,2.748,0,0,0,34.892,20.5h2.266c-.493,1.562-2.162,6.845-2.654,8.4a1.371,1.371,0,0,0,1.282,1.845h.683v8.2a2.05,2.05,0,0,0,2.391,2.02,2.108,2.108,0,0,0,1.708-2.1V30.752h1.366v8.2A2.05,2.05,0,0,0,43.985,41a2.089,2.089,0,0,0,2.05-2.131V30.752h.683a1.371,1.371,0,0,0,1.3-1.811c-3.451-10.956-1.835-5.808-2.665-8.438h2.275a2.748,2.748,0,0,0,2.733-2.551l.458-6.9A2.085,2.085,0,0,0,48.74,8.888ZM38.519,12.3a2.733,2.733,0,1,1,2.733,2.733A2.733,2.733,0,0,1,38.519,12.3Zm-6.149-8.48,2.5-2.408,3.464,2.857-2.2,2.751ZM48.994,17.859a1.376,1.376,0,0,1-1.366,1.278H44.919l-.063-.2a.683.683,0,0,0-1.3.4c.474,1.535-.523-1.672,3.167,10.049h-.683a1.366,1.366,0,0,0-1.366,1.366v8.117a.734.734,0,0,1-.564.752.683.683,0,0,1-.8-.67v-8.2a1.366,1.366,0,0,0-1.366-1.366H40.568A1.366,1.366,0,0,0,39.2,30.752v8.117a.734.734,0,0,1-.564.752.683.683,0,0,1-.8-.67v-8.2a1.366,1.366,0,0,0-1.366-1.366l-.674-.034c1-3.184,2.68-8.472,3.157-10.012a.683.683,0,0,0-1.3-.4l-.063.2H34.891a1.376,1.376,0,0,1-1.366-1.276c-.429-6.394-.456-6.764-.456-6.889a.708.708,0,0,1,1.412-.089l.478,4.309A1.366,1.366,0,0,0,36.312,16.4h9.893a1.37,1.37,0,0,0,1.356-1.216l.478-4.3a.709.709,0,0,1,1.412.123Z" transform="translate(-9.822)"/><path class="a" d="M1.366,14.2h2.05V19.46a2.218,2.218,0,0,0-.7,4.251l4.218,1.78a2.7,2.7,0,0,0,1.608.137L6.915,30.8A1.371,1.371,0,0,0,8.2,32.647h.683v8.116a2.05,2.05,0,1,0,4.1.083v-8.2h1.366v8.116A2.093,2.093,0,0,0,16.4,42.9a2.054,2.054,0,0,0,2.05-2.05v-8.2h.683a1.366,1.366,0,0,0,1.294-1.811L19.7,28.547a2.2,2.2,0,0,0,2.007-3.006l-2.794-6.909a2.718,2.718,0,0,0-2.225-1.681,4.1,4.1,0,1,0-6.052,0,2.717,2.717,0,0,0-2.227,1.686l-.844,2.111L4.783,19.733V14.2h2.05A1.366,1.366,0,0,0,8.2,12.832V7.366A1.366,1.366,0,0,0,6.832,6H1.366A1.366,1.366,0,0,0,0,7.366v5.466A1.366,1.366,0,0,0,1.366,14.2Zm12.3-2.733A2.733,2.733,0,1,1,10.932,14.2,2.733,2.733,0,0,1,13.665,11.466Zm-4.841,9.8.854-2.111a1.362,1.362,0,0,1,1.269-.855h5.438a1.362,1.362,0,0,1,1.266.851l2.79,6.9a.83.83,0,0,1-1.211,1.005l-1.96-6.224a.683.683,0,1,0-1.3.41c5.191,16.485,1.855,5.876,3.166,10.044h-.683a1.366,1.366,0,0,0-1.366,1.366v8.2a.685.685,0,1,1-1.366-.083V32.647a1.366,1.366,0,0,0-1.366-1.366H12.982a1.366,1.366,0,0,0-1.366,1.366v8.2a.685.685,0,1,1-1.366-.083V32.647A1.366,1.366,0,0,0,8.882,31.28l-.674-.034c2.474-7.857,1.654-5.221,3.157-10.01a.683.683,0,0,0-1.3-.41c-.54,1.721-.771,2.477-.8,2.545a1.366,1.366,0,0,1-1.8.856l-4.2-1.776a.86.86,0,1,1,.676-1.58L7.1,22.032a1.358,1.358,0,0,0,1.722-.767ZM1.366,7.366H6.832v5.466H1.366Z" transform="translate(0 -1.894)"/></g></svg>